<?xml version="1.0" encoding="utf-8"?>
<!-- Generator: Adobe Illustrator 17.0.0, SVG Export Plug-In . SVG Version: 6.00 Build 0)  -->
<!DOCTYPE svg PUBLIC "-//W3C//DTD SVG 1.1//EN" "http://www.w3.org/Graphics/SVG/1.1/DTD/svg11.dtd">
<svg version="1.1" id="Layer_1" xmlns="http://www.w3.org/2000/svg" xmlns:xlink="http://www.w3.org/1999/xlink" x="0px" y="0px"
	 width="493.559px" height="403.713px" viewBox="0 0 493.559 403.713" enable-background="new 0 0 493.559 403.713"
	 xml:space="preserve">
<path fill="#020202" d="M246.779,0.01c66.387,0,132.774-0.004,199.16,0.002c28.636,0.002,47.601,19.003,47.606,47.783
	c0.019,102.645,0.018,205.291,0.001,307.936c-0.005,29-18.982,47.859-48.072,47.862c-49.571,0.004-99.142-0.052-148.713,0.099
	c-4.099,0.013-5.222-1-5.116-5.113c0.298-11.553,0.322-23.125-0.006-34.676c-0.128-4.499,1.333-5.37,5.58-5.357
	c48.695,0.158,97.39,0.039,146.085,0.207c4.294,0.015,5.438-0.888,5.432-5.336c-0.146-101.069-0.145-202.138-0.004-303.207
	c0.006-4.376-1.027-5.381-5.388-5.377C312.322,44.964,181.3,44.966,50.278,44.827c-4.46-0.005-5.392,1.156-5.334,5.44
	c0.254,18.914,0.01,37.835,0.192,56.751c0.037,3.874-0.622,5.434-5.017,5.305c-11.901-0.349-23.821-0.253-35.728-0.038
	c-3.534,0.064-4.383-1.06-4.358-4.457c0.149-20.668-0.108-41.34,0.123-62.007c0.3-26.75,19.661-45.777,46.411-45.795
	C113.304-0.021,180.041,0.01,246.779,0.01z"/>
<path fill="#020202" d="M224.585,403.593c-5.953,0-11.92-0.251-17.853,0.09c-3.843,0.22-5.01-0.779-5.05-4.809
	c-0.285-28.379-6.414-55.56-18.94-80.991c-30.539-62.006-79.832-99.808-147.808-112.981c-10.154-1.968-20.436-2.949-30.773-2.969
	c-3.126-0.006-4.196-0.734-4.138-4.073c0.215-12.252,0.222-24.513,0.001-36.764c-0.066-3.643,1.181-4.245,4.527-4.165
	c106.678,2.561,197.823,70.411,230.716,171.985c7.373,22.768,10.942,46.203,11.594,70.123c0.097,3.577-0.586,4.88-4.424,4.649
	C236.506,403.33,230.538,403.593,224.585,403.593z"/>
<path fill="#020202" d="M134.585,403.593c-6.303,0-12.612-0.152-18.907,0.069c-2.835,0.1-3.354-0.869-3.486-3.525
	c-2.786-55.875-40.991-98.581-96.161-107.537c-3.962-0.643-8.017-1.036-12.023-0.988c-3.382,0.041-4.013-1.264-3.969-4.34
	c0.169-11.904,0.252-23.816-0.033-35.715c-0.096-4.008,0.994-5.01,4.954-4.806c57.062,2.943,100.54,28.906,130.435,77.365
	c14.144,22.927,20.724,48.299,21.769,75.182c0.134,3.457-0.685,4.538-4.198,4.373C146.851,403.386,140.714,403.593,134.585,403.593z
	"/>
<path fill="#020202" d="M33.764,403.594c-9.963,0-19.927-0.104-29.887,0.064c-2.933,0.049-3.857-0.741-3.837-3.766
	c0.13-19.924,0.163-39.851-0.022-59.775c-0.033-3.574,1.335-3.874,4.294-3.769c32.662,1.162,61.834,30.395,63.022,63.055
	c0.129,3.535-0.833,4.343-4.209,4.268C53.343,403.452,43.552,403.594,33.764,403.594z"/>
</svg>
